<svg width="36" height="36" viewBox="0 0 36 36" fill="none" xmlns="http://www.w3.org/2000/svg">
  <defs>
    <linearGradient id="grad1" x1="0%" y1="0%" x2="100%" y2="100%">
      <stop offset="0%" style="stop-color:#a855f7"/>
      <stop offset="50%" style="stop-color:#ec4899"/>
      <stop offset="100%" style="stop-color:#06b6d4"/>
    </linearGradient>
    <linearGradient id="grad2" x1="0%" y1="0%" x2="100%" y2="100%">
      <stop offset="0%" style="stop-color:#c084fc"/>
      <stop offset="100%" style="stop-color:#f472b6"/>
    </linearGradient>
  </defs>
  <!-- Head silhouette -->
  <path d="M18 4C12.5 4 8 8.5 8 14c0 3.5 1.8 6.5 4.5 8.2V26c0 1.1.9 2 2 2h7c1.1 0 2-.9 2-2v-3.8C26.2 20.5 28 17.5 28 14c0-5.5-4.5-10-10-10z" fill="url(#grad1)" opacity="0.9"/>
  <!-- Neural network nodes -->
  <circle cx="15" cy="12" r="1.5" fill="white" opacity="0.9"/>
  <circle cx="21" cy="12" r="1.5" fill="white" opacity="0.9"/>
  <circle cx="18" cy="16" r="1.5" fill="white" opacity="0.9"/>
  <circle cx="13" cy="17" r="1" fill="white" opacity="0.7"/>
  <circle cx="23" cy="17" r="1" fill="white" opacity="0.7"/>
  <circle cx="18" cy="10" r="1" fill="white" opacity="0.7"/>
  <!-- Neural connections -->
  <line x1="15" y1="12" x2="21" y2="12" stroke="white" stroke-width="0.5" opacity="0.5"/>
  <line x1="15" y1="12" x2="18" y2="16" stroke="white" stroke-width="0.5" opacity="0.5"/>
  <line x1="21" y1="12" x2="18" y2="16" stroke="white" stroke-width="0.5" opacity="0.5"/>
  <line x1="18" y1="10" x2="15" y2="12" stroke="white" stroke-width="0.5" opacity="0.4"/>
  <line x1="18" y1="10" x2="21" y2="12" stroke="white" stroke-width="0.5" opacity="0.4"/>
  <line x1="13" y1="17" x2="18" y2="16" stroke="white" stroke-width="0.5" opacity="0.4"/>
  <line x1="23" y1="17" x2="18" y2="16" stroke="white" stroke-width="0.5" opacity="0.4"/>
  <!-- Sparkle dots -->
  <circle cx="25" cy="9" r="0.8" fill="#c084fc" opacity="0.8"/>
  <circle cx="11" cy="9" r="0.6" fill="#ec4899" opacity="0.6"/>
  <circle cx="24" cy="15" r="0.5" fill="#06b6d4" opacity="0.7"/>
</svg>
